<svg width="60" height="60" viewBox="0 0 60 60" fill="none" xmlns="http://www.w3.org/2000/svg">
<path d="M23.25 6.25C23.25 2.7975 26.0475 0 29.5 0C32.9525 0 35.75 2.7975 35.75 6.25C35.75 9.7025 32.9525 12.5 29.5 12.5C26.0475 12.5 23.25 9.7025 23.25 6.25ZM42 25V32.5C42 36.185 39.975 39.375 37 41.11V57.5C37 58.88 35.8825 60 34.5 60C33.1175 60 32 58.88 32 57.5V42.5H27V57.5C27 58.88 25.8825 60 24.5 60C23.1175 60 22 58.88 22 57.5V41.11C19.025 39.375 17 36.185 17 32.5V25C17 19.485 21.485 15 27 15H32C37.515 15 42 19.485 42 25Z" fill="#529587"/>
</svg>
